# AST/ASF file generated using VICON BodyLanguage
# -----------------------------------------------
:version 1.10
:name VICON
:units
  mass 1.0
  length 0.45
  angle deg
:documentation
   .ast/.asf automatically generated from VICON data using
   VICON BodyBuilder and BodyLanguage model FoxedUp or BRILLIANT.MOD
:root
   order TX TY TZ RX RY RZ
   axis XYZ
   position 0 0 0  
   orientation 0 0 0 
:bonedata
  begin
     id 1 
     name lhipjoint
     direction 0.606768 -0.715223 0.346827 
     length 2.41543 
     axis 0 0 0  XYZ
  end
  begin
     id 2 
     name lfemur
     direction 0.34202 -0.939693 0  
     length 7.2778  
     axis 0 0 20  XYZ
    dof rx ry rz
    limits (-160.0 20.0)
           (-70.0 70.0)
           (-60.0 70.0)
  end
  begin
     id 3 
     name ltibia
     direction 0.34202 -0.939693 0   
     length 7.61811   
     axis 0 0 20   XYZ
    dof rx
    limits (-10.0 170.0)
  end
  begin
     id 4 
     name lfoot
     direction 0.0823924 -0.226371 0.97055   
     length 2.33618   
     axis -90 7.62852e-016 20   XYZ
    dof rx rz
    limits (-45.0 90.0)
           (-70.0 20.0)
  end
  begin
     id 5 
     name ltoes
     direction 1.53554e-011 -4.21934e-011 1   
     length 1.17015   
     axis -90 7.62852e-016 20   XYZ
    dof rx
    limits (-90.0 20.0)
  end
  begin
     id 6 
     name rhipjoint
     direction -0.6077 -0.714582 0.346516   
     length 2.4176  
     axis 0 0 0  XYZ 
  end
  begin
     id 7 
     name rfemur
     direction -0.34202 -0.939693 0   
     length 7.28127   
     axis 0 0 -20   XYZ
    dof rx ry rz
    limits (-160.0 20.0)
           (-70.0 70.0)
           (-70.0 60.0)
  end
  begin
     id 8 
     name rtibia
     direction -0.34202 -0.939693 0   
     length 7.77648   
     axis 0 0 -20   XYZ
    dof rx
    limits (-10.0 170.0)
 end
 begin
     id 9 
     name rfoot
     direction -0.0809463 -0.222398 0.97159   
     length 2.37533  
     axis -90 -7.62852e-016 -20   XYZ
    dof rx rz
    limits (-45.0 90.0)
           (-20.0 70.0)
  end
  begin
     id 10 
     name rtoes
     direction -1.53568e-011 -4.21714e-011 1   
     length 1.18972   
     axis -90 -7.62852e-016 -20   XYZ
    dof rx
    limits (-90.0 20.0)
  end
  begin
     id 11 
     name lowerback
     direction 0.010968 0.991932 -0.126297   
     length 2.21698   
     axis 0 0 0   XYZ
    dof rx ry rz
    limits (-20.0 45.0)
           (-30.0 30.0)
           (-30.0 30.0)
  end
  begin
     id 12 
     name upperback
     direction 0.0167007 0.997503 -0.0686276   
     length 2.22371   
     axis 0 0 0   XYZ
    dof rx ry rz
    limits (-20.0 45.0)
           (-30.0 30.0)
           (-30.0 30.0)
  end
  begin
     id 13 
     name thorax
     direction 0.0111721 0.999885 -0.0102878   
     length 2.25242   
     axis 0 0 0   XYZ
    dof rx ry rz
    limits (-20.0 45.0)
           (-30.0 30.0)
           (-30.0 30.0)
  end
  begin
     id 14 
     name lowerneck
     direction -0.0120265 0.990428 0.137508   
     length 1.57674   
     axis 0 0 0   XYZ
    dof rx ry rz
    limits (-20.0 45.0)
           (-30.0 30.0)
           (-30.0 30.0)
  end
  begin
     id 15 
     name upperneck
     direction 0.0175669 0.998907 0.0433089   
     length 1.5618   
     axis 0 0 0   XYZ
    dof rx ry rz
    limits (-20.0 45.0)
           (-30.0 30.0)
           (-30.0 30.0)
  end
  begin
     id 16
     name head
     direction 0.00754609 0.99997 0.00185367  
     length 1.60579  
     axis 0 0 0   XYZ
    dof rx ry rz
    limits (-20.0 45.0)
           (-30.0 30.0)
           (-30.0 30.0)
  end
  begin
     id 17 
     name lclavicle
     direction 0.885866 0.429166 -0.176231  
     length 3.44967  
     axis 0 0 0   XYZ
    dof ry rz
    limits (-20.0 10.0)
           (0.0 20.0)
  end
  begin
     id 18 
     name lhumerus
     direction 1 -4.48973e-011 -1.90255e-027   
     length 5.20607   
     axis 180 -30 -90   XYZ
    dof rx ry rz
    limits (-60.0 90.0)
           (-90.0 90.0)
           (-90.0 90.0)
  end
  begin
     id 19
     name lradius
     direction 1 -4.48956e-011 9.87925e-027   
     length 3.39961   
     axis 180 -30 -90   XYZ
    dof rx
    limits (-10.0 170.0)
  end
  begin
     id 20
     name lwrist
     direction 1 -4.48985e-011 1.73247e-026   
     length 1.6998   
     axis -9.60847e-015 90 90   XYZ
    dof ry
    limits (-180.0 0.0)
 end
  begin
     id 21 
     name lhand
     direction 1 -4.48798e-011 3.46119e-026   
     length 0.519693   
     axis -2.21073e-014 90 90   XYZ
    dof rx rz
    limits (-90.0 90.0)
           (-45.0 45.0)
  end
  begin
     id 22 
     name lfingers
     direction 1 -4.48938e-011 6.92797e-026   
     length 0.41899   
     axis -4.42155e-014 90 90   XYZ
    dof rx
    limits (0.0 90.0)
  end
  begin
     id 23
     name lthumb
     direction 0.707107 -6.34952e-011 0.707107   
     length 0.601588   
     axis -90 45 6.0103e-014   XYZ
    dof rx rz
    limits (-45.0 45.0)
           (-45.0 45.0)
  end
  begin
     id 24 
     name rclavicle
     direction -0.866736 0.456792 -0.200276   
     length 3.45032  
     axis 0 0 0   XYZ 
    dof ry rz
    limits (-10.0 20.0)
           (-20.0 0.0)
  end
  begin
     id 25 
     name rhumerus
     direction -1 -4.4897e-011 8.65094e-028  
     length 5.32214   
     axis 180 30 90   XYZ
    dof rx ry rz
    limits (-90.0 60.0)
           (-90.0 90.0)
           (-90.0 90.0)
  end
  begin
     id 26 
     name rradius
     direction -1 -4.48987e-011 1.08427e-026   
     length 3.51208   
     axis 180 30 90   XYZ
    dof rx
    limits (-10.0 170.0)
  end
  begin
     id 27 
     name rwrist
     direction -1 -4.48961e-011 1.73222e-026   
     length 1.75604   
     axis -9.60847e-015 -90 -90   XYZ
    dof ry
    limits (-180.0 0.0)
  end
  begin
     id 28
     name rhand
     direction -1 -4.48895e-011 3.46314e-026   
     length 0.586681   
     axis -2.21073e-014 -90 -90   XYZ
    dof rx rz
    limits (-90.0 90.0)
           (-45.0 45.0)
  end
  begin
     id 29
     name rfingers
     direction -1 -4.48968e-011 6.92916e-026   
     length 0.472997   
     axis -4.42155e-014 -90 -90   XYZ
    dof rx
    limits (0.0 90.0)
  end
  begin
     id 30
     name rthumb
     direction -0.707107 -6.34848e-011 0.707107   
     length 0.679133   
     axis -90 -45 -6.0103e-014   XYZ
    dof rx rz
    limits (-45.0 45.0)
           (-45.0 45.0)
  end
:hierarchy
  begin
    root lhipjoint rhipjoint lowerback
    lhipjoint lfemur
    lfemur ltibia
    ltibia lfoot
    lfoot ltoes
    rhipjoint rfemur
    rfemur rtibia
    rtibia rfoot
    rfoot rtoes
    lowerback upperback
    upperback thorax
    thorax lowerneck lclavicle rclavicle
    lowerneck upperneck
    upperneck head
    lclavicle lhumerus
    lhumerus lradius
    lradius lwrist
    lwrist lhand lthumb
    lhand lfingers
    rclavicle rhumerus
    rhumerus rradius
    rradius rwrist
    rwrist rhand rthumb
    rhand rfingers
  end

#!OML:ASF H:\Dans Jumps\Project 1\Capture day 1\Session 1\subject.ASF
:FULLY-SPECIFIED
:DEGREES
34
root 0.561019 17.4803 -14.3268 7.26812 -1.92301 -1.48229
lowerback 0.926265 -0.743706 -0.269171
upperback 4.89937 -1.05626 1.74466
thorax 4.5704 -0.578511 1.92025
lowerneck -13.3599 1.11569 -1.69301
upperneck 31.5268 2.04119 0.0350787
head 12.6682 0.692767 0.603015
rclavicle 1.02374e-014 -6.16232e-015
rhumerus -18.6629 -12.028 -81.8958
rradius 27.0118
rwrist 30.6718
rhand -17.2717 -26.0149
rfingers 7.12502
rthumb 8.97313 -55.8041
lclavicle 1.02374e-014 -6.16232e-015
lhumerus -16.7495 -3.65314 87.08
lradius 21.8779
lwrist 3.16914
lhand -24.3403 -2.89989
lfingers 7.12502
lthumb 2.14873 27.069
rfemur -19.2909 -1.62336 19.3359
rtibia 27.5644
rfoot -13.5767 -4.66585
rtoes 8.42841
lfemur -18.2322 8.73379 -18.9284
ltibia 25.3118
lfoot -11.7954 4.94268
ltoes 4.28967
35
root 0.560954 17.4774 -14.3414 7.36016 -1.96391 -1.4544
lowerback 1.00163 -0.7412 -0.31977
upperback 4.90669 -1.05131 1.73616
thorax 4.53589 -0.577812 1.94089
lowerneck -13.3777 1.12642 -1.6759
upperneck 31.4225 2.05637 0.0174663
head 12.6291 0.700378 0.594831
rclavicle -3.8763e-015 2.32578e-014
rhumerus -18.7235 -12.0715 -81.8288
rradius 27.0597
rwrist 30.6154
rhand -17.2634 -26.0022
rfingers 7.12502
rthumb 8.98114 -55.791
lclavicle -3.8763e-015 2.32578e-014
lhumerus -16.8145 -3.61927 87.0139
lradius 21.9588
lwrist 3.34635
lhand -24.3018 -2.85182
lfingers 7.12502
lthumb 2.18587 27.1167
rfemur -19.5364 -1.56374 19.305
rtibia 27.7144
rfoot -13.572 -4.69127
rtoes 8.39399
lfemur -18.4656 8.80419 -18.987
ltibia 25.438
lfoot -11.7933 4.90792
ltoes 4.23917
36
root 0.560724 17.4746 -14.357 7.45071 -1.99363 -1.41823
lowerback 1.08707 -0.74206 -0.377738
upperback 4.91612 -1.05069 1.72495
thorax 4.49814 -0.579484 1.96284
lowerneck -13.3975 1.13842 -1.65746
upperneck 31.3198 2.07296 0.000246621
head 12.5912 0.708788 0.586815
rclavicle 5.2181e-015 -2.42517e-014
rhumerus -18.7868 -12.1317 -81.7568
rradius 27.0964
rwrist 30.575
rhand -17.2625 -25.9821
rfingers 7.12502
rthumb 8.982 -55.7709
lclavicle 5.2181e-015 -2.42517e-014
lhumerus -16.8865 -3.59041 86.9441
lradius 22.0395
lwrist 3.52828
lhand -24.2605 -2.79305
lfingers 7.12502
lthumb 2.2258 27.1751
rfemur -19.7808 -1.50755 19.2654
rtibia 27.8623
rfoot -13.5694 -4.72262
rtoes 8.37028
lfemur -18.6983 8.86268 -19.0533
ltibia 25.555
lfoot -11.7854 4.87093
ltoes 4.20146
37
root 0.560422 17.4717 -14.3734 7.53957 -2.01149 -1.37479
lowerback 1.18174 -0.746505 -0.440887
upperback 4.92826 -1.05479 1.71183
thorax 4.45825 -0.583664 1.9857
lowerneck -13.4199 1.14797 -1.6415
upperneck 31.2169 2.08648 -0.0162201
head 12.5539 0.715642 0.579115
rclavicle 6.31141e-015 -2.16675e-014
rhumerus -18.8562 -12.1952 -81.6796
rradius 27.1283
rwrist 30.5446
rhand -17.2715 -25.9547
rfingers 7.12502
rthumb 8.97335 -55.7439
lclavicle 6.31141e-015 -2.16675e-014
lhumerus -16.9666 -3.56621 86.8718
lradius 22.1222
lwrist 3.70847
lhand -24.2245 -2.74533
lfingers 7.12502
lthumb 2.2605 27.2224
rfemur -20.0229 -1.45667 19.2178
rtibia 28.0076
rfoot -13.5705 -4.75932
rtoes 8.35516
lfemur -18.931 8.90485 -19.126
ltibia 25.6663
lfoot -11.7737 4.83576
ltoes 4.17664
38
root 0.560181 17.4687 -14.3906 7.62909 -2.01994 -1.32812
lowerback 1.27913 -0.754166 -0.504068
upperback 4.94545 -1.06335 1.69784
thorax 4.4223 -0.59008 2.0076
lowerneck -13.4472 1.15733 -1.62811
upperneck 31.1132 2.10048 -0.032586
head 12.5173 0.722412 0.572023
rclavicle 4.17448e-015 2.5842e-015
rhumerus -18.9265 -12.2666 -81.5978
rradius 27.154
rwrist 30.5303
rhand -17.2881 -25.9199
rfingers 7.12502
rthumb 8.95735 -55.7098
lclavicle 4.17448e-015 2.5842e-015
lhumerus -17.0506 -3.54942 86.7959
lradius 22.208
lwrist 3.8886
lhand -24.1923 -2.6934
lfingers 7.12502
lthumb 2.29167 27.274
rfemur -20.2642 -1.4128 19.1663
rtibia 28.1484
rfoot -13.576 -4.79623
rtoes 8.35207
lfemur -19.1681 8.9298 -19.201
ltibia 25.7782
lfoot -11.7606 4.80605
ltoes 4.16752
